<svg xmlns="http://www.w3.org/2000/svg" xmlns:xlink="http://www.w3.org/1999/xlink" viewBox="0 0 842 666">
  <defs>
    <style>
      .cls-1 {
        isolation: isolate;
        fill:white
      }

      .cls-2 {
       
        fill-rule: evenodd;
      }
    </style>
  </defs>
  <g id="crown" class="cls-1">
    <path class="cls-2" d="M574,32c28.28-.55,55.59,11.24,76,19,89.44,34,138.57,67.46,171,159l12,62,3,1-1,1c-.16,4.32-1,9.44-1,15,0,10.24,2,15.72,2,23q-.5,8-1,16c2.09,9.95,2,26.34,1,38-.22,2.46-1.67,4.51-1,8,2.57,13.3,1.79,40.58-1,52-2.5,10.24,4.57,16.22,2,26-1.74,6.63-2.26,16.67-5,24-.89,2.37-4.25,5.6-5,8-1.33,4.27,1.41,6.34,0,9-7.88,8.33-22.39,3.8-36,7-3.23.76-8.45,3.35-14,2-3.61-.88-9.92-3.42-16-2-10.06,2.35-30.71,3-42,0-7.6-2-26-10.78-38-8-8.33,1.93-23.19,6.76-34,4-27-6.88-59.15-12.2-84-21l-14-2c-5.75-2-14-5.36-20-7l-10-1c-9.79-4.17-23.14-5.54-34-10-2-.81-4.21-4.28-6-5H464c-5.91-1.47-12.93-2.1-20-4-20.73-5.57-46.1-8.23-68-14l-24-3c-2.37-.88-5.6-4.24-8-5-5.32-1.69-11,1.44-14,2-1.48.28-16.68-1.18-20-2-2.88-.71-10.11-.73-14-2-3.27-1.07-6.56-5-10-6H272c-6.8-1.67-21.19-2.35-28-4-12.54-3.05-29.73.49-40-2-6.17-1.5-15.41,1.9-20-1-4.51-1.44-5.13-4.16-8-7-.4-19.05,3.84-37.38,8-54,3.39-13.55-1.29-25,2-38,4.22-16.74,5.27-35,10-52s11.12-36.56,17-52c2.18-5.72,1.49-10.44,4-16,22.8-50.56,64.22-90.24,111-117,4.12-2.36,8.6-1.89,13-4,10.46-5,24.54-9.5,35-14l10-1c12-3.25,27.66-6.89,40-10h12c21.9-5.43,48.09-7.89,74-8-.5-5-3.85-11.55-1-16a12.14,12.14,0,0,1,11-9c4.37-3,12.35-2.25,17-2,14.61.79,32.46-1.35,34,15C574.14,25.69,574.07,28.9,574,32Z"/>
  </g>
  <g id="visor" class="cls-1">
    <path class="cls-2" d="M204,409c3-.26,4.58.12,15.18.38,2.87.07,6.34.24,10.82.62,9.21.78,11.37,1.35,25,3,19.4,2.34,17.73,1.25,31,3,29.64,3.92,32.82,8.71,44,7,2-.31,38,8,46,9,21.85,5.88,47.28,8.41,68,14,7.06,1.91,14.09,2.53,20,4,4.67,0,94.42,25.34,134,36,13.19,3.55,24.41,2.45,38,6,3,.79,7,3.23,10,4,10.74,2.73,25.76-2,34-4,8-2,17.32,1.68,24,3a21.58,21.58,0,0,1,1,7c-6.39,4.28-10.63,11.62-16,17-6.26,6.26-14.12,11.41-20,18-4.52,5.07-7,11.44-12,16-9.88,9-21.8,15.25-32,24-20.38,17.49-41.44,38.25-65,52-14.11,8.23-30.7,13.41-46,20-6.58,2.83-12.29,1.08-20,3-29.71,7.4-76,1-102-8-12.28-4.25-23.7-4.51-36-9-17-6.23-36.88-14.35-53-22-8.18-3.88-17.08-2.46-25-6a714.29,714.29,0,0,0-112-39H148c-13-3.18-39-5.86-52-2-2.37.71-5.35,3.28-8,4-11.93,3.25-25.53.93-36,5-3.79,1.47-18,7.35-21,10-7.66,6.84-3,8.94-19,9-1-.8-.27-.35-2-1-1.71-2.73-2.54-2.5-3-7-.83-1.66-.24-2.59,0-6,7.1-4.79,12-13,18-19s13.47-10.19,20-16c1-.86,1.06-3.07,2-4,4.36-4.32,9.66-7.66,14-12,2.29-2.29,3.62-5.82,6-8,2.88-2.63,7.07-3.39,10-6,2.39-2.13,3.72-5.72,6-8,9.67-9.67,20.33-18.33,30-28,5-4.95,8.84-11.28,14-16,2.88-2.63,7.06-3.39,10-6,3.09-2.76,5.06-7.06,8-10a61.51,61.51,0,0,1,10-8c4.2-2.9,13.27-11.31,17.29-22.63,3.2-9,.07-15.36,3.71-14.37C200,408.55,194.52,409.81,204,409Z"/>
  </g>
  <g id="shadow">
    <image id="image" width="842" height="666" xlink:href="cap1.png"/>
  </g>
</svg>
